<?xml version="1.0" encoding="utf-8"?>
<!-- Generator: Adobe Illustrator 19.0.0, SVG Export Plug-In . SVG Version: 6.00 Build 0)  -->
<svg version="1.1" id="Layer_1" xmlns="http://www.w3.org/2000/svg" xmlns:xlink="http://www.w3.org/1999/xlink" x="0px" y="0px"
	 viewBox="0 0 217 163" style="enable-background:new 0 0 217 163;" xml:space="preserve">
<style type="text/css">
	.st0{fill:#F7323F;}
	.st1{fill:#FFFFFF;}
</style>
<polygon class="st0" points="157.4,158.1 154.2,158.1 149.1,151.4 146.8,153.8 146.8,158.1 144.2,158.1 144.2,143.2 146.8,143.2 
	146.8,150.7 153.9,143.2 157.1,143.2 150.9,149.6 "/>
<path class="st0" d="M173.7,158.1h-2.8l-1.5-3.6h-7.1l-1.5,3.6h-2.7l6.6-15.1h2.4L173.7,158.1z M165.9,146.2l-2.6,6h5.1L165.9,146.2
	z"/>
<polygon class="st0" points="180.7,158.1 178,158.1 178,145.6 173.3,145.6 173.3,143.2 185.4,143.2 185.4,145.6 180.7,145.6 "/>
<polygon class="st0" points="187.7,145.5 187.7,143.2 199.6,143.2 199.6,145.1 190.8,155.8 199.6,155.8 199.6,158.1 187.4,158.1 
	187.4,156.2 196.2,145.5 "/>
<polygon class="st0" points="214,145.5 205.5,145.5 205.5,149.4 213,149.4 213,151.8 205.5,151.8 205.5,155.8 214.1,155.8 
	214.1,158.1 202.9,158.1 202.9,143.2 214,143.2 "/>
<path class="st1" d="M20.8,128.4c6.7,0,9.8-4.3,9.8-9c0-14.1-25.3-12.8-25.3-29.6c0-7.9,6.7-13.5,15.9-13.5c6.5,0,10.8,1.5,13.8,3.4
	V91h-0.9c-2.6-8.6-7.9-12.6-13.4-12.6c-5.6,0-8.9,3.7-8.9,8.4c0,14.1,25.2,13.1,25.2,29.4c0,8.1-6.2,14.2-16.1,14.2
	c-7.2,0-11.9-2.2-15.3-3.9v-11.7h0.9C9.6,124.2,15.3,128.3,20.8,128.4"/>
<path class="st1" d="M51.1,120.9c0,5.1,1,7,3.2,8v0.7H41.2v-0.7c2.2-1,3.2-3,3.2-8V99.6c0-4.1-1.9-5.4-3.4-6.2v-0.8l10.1-3.4V120.9z
	 M47.4,73.7c2.6,0,4.9,2.3,4.9,4.9c0,2.6-2.3,4.9-4.9,4.9c-2.6,0-4.9-2.3-4.9-4.9C42.5,76,44.8,73.7,47.4,73.7"/>
<path class="st1" d="M91.6,121.4c-3.5,5.1-9,9.1-16.1,9.1c-11.1,0-18.4-7.9-18.4-20.2c0-12.5,7.5-21,18.2-21
	c11.3,0,15.7,7.2,15.7,16.6v1.9H64.3v0.6c0,12.2,6.4,17.6,13.9,17.6c4.8,0,9.1-1.9,12.8-5.3L91.6,121.4z M84.3,104.7
	c-0.2-6.8-2.3-13.5-9-13.5c-6.8,0-10.3,6.5-10.9,14.7L84.3,104.7z"/>
<path class="st1" d="M118.7,123.9c8.3,0,12.1,2.3,12.1,8.3c0,7.9-9.6,16.9-23.1,16.9c-9.3,0-14.4-4.1-14.4-9.9
	c0-4.4,3.6-8.3,8.4-9.9c-2.5-1.1-3.9-3-3.9-5.6c0-4,3.7-6.9,5.9-8.2c-5.2-1.9-8.6-6.2-8.6-12.4c0-8,6.5-13.9,16.1-13.9
	c3.5,0,6.6,0.9,9,2.4c1.4-3.8,4-6.3,7.3-6.3c2.6,0,4.2,1.7,4.2,3.7c0,2-1.2,3.6-3.5,3.6c-1.8,0-3.1-1.1-3.7-2.6
	c-1.2,0.2-2.3,1.1-3.2,2.4c2.9,2.3,4.5,5.8,4.5,10c0,8.3-6.8,14-16.2,14c-1.5,0-3-0.2-4.3-0.5c-1.3,1.4-2.3,2.9-2.3,4.4
	c0,2.3,1.6,3.5,5.4,3.5H118.7z M107.8,130.3c-1.6,0-3.1-0.2-4.4-0.5c-2.6,1.7-4.4,4.4-4.4,7.6c0,5.5,4.6,8.6,11.2,8.6
	c8.4,0,15.1-4.1,15.1-11c0-3.5-2.3-4.8-6.9-4.8H107.8z M101.8,102.5c0,7.4,3.7,12.1,8.6,12.1c4.8,0,8.6-4.6,8.6-11.4
	c0-6.6-3.6-12-8.6-12C105.4,91.1,101.8,95.8,101.8,102.5"/>
<path class="st1" d="M165.7,121.4c-3.5,5.1-9,9.1-16.1,9.1c-11.1,0-18.4-7.9-18.4-20.2c0-12.5,7.5-21,18.2-21
	c11.3,0,15.7,7.2,15.7,16.6v1.9h-26.7v0.6c0,12.2,6.4,17.6,13.9,17.6c4.8,0,9.1-1.9,12.8-5.3L165.7,121.4z M158.3,104.7
	c-0.2-6.8-2.3-13.5-9-13.5c-6.8,0-10.3,6.5-10.9,14.7L158.3,104.7z"/>
<path class="st1" d="M191.3,89.2c3.1-0.1,5,2.2,5,4.7c0,2.8-1.9,4.8-4.7,4.8c-2.4,0-4.4-2-4.5-4.8c-1.9,0.2-5.3,3-7.8,6.1v20.9
	c0,5.1,1.2,6.9,4.1,8v0.7h-14v-0.7c2.2-1,3.2-3,3.2-8V99.4c0-4.1-1.9-5.4-3.4-6.2v-0.7l10.1-3.4v8.7
	C183.1,92.7,187.6,89.2,191.3,89.2"/>
<path class="st0" d="M65.7,14.5c-0.9-1.4-0.9-3.6-0.5-4.8c0.5-1.2,2.1-1.1,3.1-1c1,0.1,1.9-1.4,2.2-1.7c0.3-0.3,3.4-0.3,4.6-0.2
	c0.5-0.4,0.4-4.1,0.9-4.3c0.5-0.2,1,3.5,1,4.4s0.9,1.5,1.4,0.9c1.2-0.8,4.9-4.3,5.7-4.1c0.9,0.2-0.3,6-1.3,9.1c0.2,1,0.3,5.7,0,9
	c-0.1,1.6,2.1,4.7,2.1,4.7c18.5,18,20.5,22,20.2,40.9c-0.1,2.7,0,3.4,0.9,3.4c5.8,0.2,9.2-0.9,10.4-4.3c1.5-4.4-0.9-11.3-7.2-20.3
	c-2.1-3-2.8-6.5-2.2-10.3c0.7-4.4,2.3-7.1,5.6-8.8c3-1.6,4.6,0.5,3.9,0.9c-3,1.8-5.4,5.1-6.2,8.6c-0.4,2-0.6,5,1.4,7.9
	c6.9,10,9.4,17.6,7.5,23c-2.1,6.2-5.5,6.3-12.3,6.5c-0.2,0-0.4,0-0.7,0c-0.6,0-2.1,0-3,0c-1.3,0-2.5,0-3.8,0c-0.2,0-0.5,0-0.8,0
	l-1.2,0c-0.1,0-0.2,0-0.3,0c-1.2,0-2.9,0-5.3,0l0,0H81.3c0.5-2.9,2.8-3.5,4.3-3.3c-1.1-1.4-2.6-4.4-3-6.9c-0.1-0.5-0.6-0.5-0.7,0
	l-2,10.1h-6.2c0.1-0.6,0.2-1.2,0.4-1.7c0.2-0.4,0.7-0.7,1-1.1c0.5-0.3,1-0.5,1-0.5S77.3,56,77.3,52c0-4-4-7.6-5.2-9.2
	c-2.4-3.3-2.8-4.8-3.3-9.2c-0.5-2.6,0-5.6,0.2-8.3c0.2-2.7,0.7-5.5,0.1-6.4C68.6,17.8,66.6,15.9,65.7,14.5"/>
<path class="st0" d="M71.7,44.1c1.2,1.6,5.6,4.3,5.2,9.2c0,0.9-1.5,16.6-1.5,16.6s-2.1,0.5-2.7,3.9c-0.3-0.1-3.2-0.1-3.8,0
	c0-3.7,2.9-4,3.6-4.4C72.3,61.1,72.5,46.8,71.7,44.1"/>
</svg>
