<?xml version="1.0" encoding="utf-8"?>
<!-- Generator: Adobe Illustrator 19.0.0, SVG Export Plug-In . SVG Version: 6.00 Build 0)  -->
<svg version="1.1" id="Layer_1" xmlns="http://www.w3.org/2000/svg" xmlns:xlink="http://www.w3.org/1999/xlink" x="0px" y="0px"
	 viewBox="0 0 201.2 181.2" style="enable-background:new 0 0 201.2 181.2;" xml:space="preserve">
<style type="text/css">
	.st0{clip-path:url(#SVGID_2_);}
	.st1{clip-path:url(#SVGID_2_);fill:#CB202C;}
</style>
<g>
	<defs>
		<rect id="SVGID_1_" width="201.2" height="181.2"/>
	</defs>
	<clipPath id="SVGID_2_">
		<use xlink:href="#SVGID_1_"  style="overflow:visible;"/>
	</clipPath>
	<path class="st0" d="M19.1,131.4c6.9,0,10.2-4.3,10.2-9.1C29.3,108.1,3,109.4,3,92.4c0-8,6.9-13.6,16.5-13.6c6.7,0,10.9,1.5,14,3.5
		v11.3h-0.9C30,84.9,24.7,80.9,19,80.9c-5.8,0-9.3,3.8-9.3,8.5c0,14.3,26.2,13.2,26.2,29.8c0,8.2-6.5,14.4-16.7,14.4
		c-7.4,0-12.7-2.2-16.2-4v-11.8h0.9C7.2,127.1,13.4,131.3,19.1,131.4"/>
	<path class="st0" d="M50.5,123.7c0,5.1,1.1,7.1,3.3,8.1v0.7H40.3v-0.7c2.3-1,3.3-3,3.3-8.1v-21.7c0-4.2-1.9-5.5-3.6-6.2V95
		l10.5-3.5V123.7z"/>
	<path class="st0" d="M46.8,76.1c2.7,0,5.1,2.3,5.1,5c0,2.7-2.3,5-5.1,5c-2.7,0-5.1-2.3-5.1-5C41.7,78.4,44,76.1,46.8,76.1"/>
	<path class="st0" d="M92.6,124.2c-3.6,5.2-9.3,9.2-16.7,9.2c-11.6,0-19.1-8-19.1-20.6c0-12.7,7.8-21.3,18.9-21.3
		c11.7,0,16.3,7.4,16.3,16.8v2H64.3v0.6c0,12.4,6.6,17.9,14.5,17.9c5,0,9.4-2,13.2-5.4L92.6,124.2z M85,107.3
		c-0.2-6.9-2.3-13.7-9.3-13.7c-7,0-10.7,6.6-11.3,14.9L85,107.3z"/>
	<path class="st0" d="M120.7,126.7c8.6,0,12.5,2.4,12.5,8.5c0,8.1-9.9,17.2-24,17.2c-9.6,0-14.9-4.2-14.9-10c0-4.5,3.7-8.5,8.7-10
		c-2.6-1.1-4-3.1-4-5.7c0-4.1,3.8-7,6.1-8.3c-5.4-1.9-9-6.3-9-12.6c0-8.1,6.8-14.2,16.7-14.2c3.6,0,6.9,0.9,9.4,2.4
		c1.5-3.9,4.2-6.4,7.6-6.4c2.7,0,4.4,1.7,4.4,3.8c0,2.1-1.3,3.6-3.6,3.6c-1.9,0-3.2-1.1-3.8-2.7c-1.3,0.2-2.4,1.1-3.3,2.5
		c3,2.4,4.7,5.9,4.7,10.2c0,8.4-7,14.2-16.8,14.2c-1.5,0-3.1-0.2-4.4-0.5c-1.4,1.4-2.3,2.9-2.3,4.4c0,2.4,1.7,3.6,5.6,3.6H120.7z
		 M109.4,133.3c-1.7,0-3.2-0.2-4.5-0.5c-2.7,1.7-4.6,4.4-4.6,7.7c0,5.6,4.8,8.8,11.6,8.8c8.7,0,15.7-4.2,15.7-11.1
		c0-3.6-2.3-4.9-7.2-4.9H109.4z M103.2,105c0,7.5,3.9,12.3,8.9,12.3c5,0,8.9-4.7,8.9-11.6c0-6.7-3.7-12.2-8.9-12.2
		C106.9,93.5,103.2,98.3,103.2,105"/>
	<path class="st0" d="M169.6,124.2c-3.6,5.2-9.3,9.2-16.7,9.2c-11.5,0-19.1-8-19.1-20.6c0-12.7,7.8-21.3,18.9-21.3
		c11.7,0,16.3,7.4,16.3,16.8v2h-27.7v0.6c0,12.4,6.6,17.9,14.5,17.9c5,0,9.5-2,13.2-5.4L169.6,124.2z M162,107.3
		c-0.2-6.9-2.3-13.7-9.3-13.7c-7,0-10.7,6.6-11.3,14.9L162,107.3z"/>
	<path class="st0" d="M196,91.6c3.2-0.1,5.2,2.2,5.2,4.7c0,2.8-2,4.9-4.8,4.9c-2.5,0-4.5-2.1-4.7-4.9c-2,0.2-5.5,3-8.1,6.2v21.3
		c0,5.1,1.3,7,4.3,8.1v0.7h-14.5v-0.7c2.3-1,3.3-3,3.3-8.1v-21.8c0-4.2-1.9-5.5-3.6-6.3v-0.7l10.5-3.5v8.9
		C187.5,95,192.2,91.5,196,91.6"/>
	<path class="st1" d="M147.2,64.6l-0.1-1.1c-0.1-1.2-0.3-1.3-1.6-1.8c-2.7-1-6.4-1.4-10-3.1l-0.2-2.6c-0.9-6-6.5-11.9-12.2-16.2
		c-6.1-4.7-10.2-6.1-16.4-8.2l-25.3-7.2L64.8,0l-0.1,0.1c-0.6,0.5-0.8,1.3-0.8,1.7L64.4,7l-4.6,3.2c-0.9,0.7-1.5,2.5-1.6,3.5
		l-8.4,5.1c0,0-1.7,0.8-0.3,2.4c0.6,0.7,0.9,1,1.5,1.6c0.9,0.8,1.5,0.9,2.4,0.9c0.4,0,2.5-0.2,3-0.8c0,0,0.3,0.3-0.3,0.7l0,0
		c0,0,0,0,0,0c-0.1,0-0.2,0.1-0.3,0.1l0,0c-0.7,0.3-2,0.8-2.1,1.4c0,0-0.1,0.8-0.1,2.1c0,1,0.1,1.5,0.1,1.5c0.1,0.4,0.4,1,0.7,0.9
		c0,0,0.1,0,0.1-0.1c0-1-0.1-2.4,0.3-3.3c0.3,0.5,0.7,0.9,1.3,0.8c0.3,0,1.6-0.2,1.7-0.3l5.4-1.3l0.6,0.8c2.7,8.9,4.2,16.4,4.2,16.4
		c0.9,2.5,4.4,7.8,7.4,10.5l1.8,18.5l0.1,0.4c-0.7,0.2-1.4,0.5-2.2,0.8c-0.4,0.1-1,0.6-1.2,1c-0.5,1-0.7,1.5-1,2.2h5.3h0.6h0.5h2.2
		h0.1h4.1h0.9l2.7-18.6c-3.7,0-5.3-0.2-5.3-0.2l-0.9,14.7c-0.5,0.2-1,0.3-1.3,0.4l0.8-16.6v0c0.7,0.2,8.9,0.6,14.4,0.3
		c8.6-0.6,17.1-2.9,17.1-2.9c2.8,6.2,9.9,10.8,14,12.2c0,0,0,5.4,1.1,8c1.3,2.9,4.7,2.8,7,2.8c0,0-0.9-3-0.9-9.7
		c0,0,2.7,0.4,6.8,0.3l0.3,5.4c-0.6,0.2-1.3,0.4-2,0.7c-0.4,0.1-1,0.6-1.2,1c-0.5,1-0.7,1.5-1,2.2h5.8h0.2h3l0.3,0h0.5L147.2,64.6z"
		/>
	<path class="st1" d="M123.4,65.2l-0.4-0.2c-1.2-0.7-2.4-1.5-3.6-2.5c-1.4-1.2-2.7-2.5-3.9-3.9c-0.9-1.1-1.8-2.2-2.5-3.4
		c-1.6,0.4-7.6,1.9-7.6,1.9c3.1,5.2,8,8.7,10.5,9.8c4,1.8,1.4,0.5,3.4,1.3l-0.5,3.9l0-0.1c-0.7,0.3-1.8,0.5-2.7,0.9
		c-0.4,0.1-1,0.6-1.2,1c-0.5,1-0.7,1.5-1,2.2h4.8h1.1h4.1l0.3-8.5C124.4,66.2,124.5,65.9,123.4,65.2"/>
	<path class="st0" d="M0,168.7h4.8c0.7,0,1.4,0.1,1.9,0.3c0.6,0.2,1.1,0.5,1.5,0.8c0.4,0.4,0.7,0.8,0.9,1.3c0.2,0.5,0.3,1.1,0.3,1.7
		v0c0,0.7-0.1,1.3-0.4,1.8c-0.3,0.5-0.6,1-1.1,1.3c-0.4,0.4-1,0.6-1.6,0.8c-0.6,0.2-1.2,0.3-1.9,0.3H2.1v4H0V168.7z M4.7,175.1
		c0.8,0,1.5-0.2,1.9-0.6c0.5-0.4,0.7-0.9,0.7-1.6v0c0-0.7-0.2-1.3-0.7-1.6c-0.5-0.4-1.1-0.6-1.9-0.6H2.1v4.4H4.7z"/>
	<polygon class="st0" points="11.3,168.7 20.4,168.7 20.4,170.6 13.5,170.6 13.5,173.8 19.6,173.8 19.6,175.7 13.5,175.7 13.5,179 
		20.5,179 20.5,181 11.3,181 	"/>
	<polygon class="st0" points="25.7,170.7 21.8,170.7 21.8,168.7 31.8,168.7 31.8,170.7 27.9,170.7 27.9,181 25.7,181 	"/>
	<polygon class="st0" points="38.6,168.7 47.7,168.7 47.7,170.6 40.7,170.6 40.7,174 46.9,174 46.9,176 40.7,176 40.7,181 38.6,181 
			"/>
	<path class="st0" d="M55.6,181.2c-0.9,0-1.8-0.2-2.6-0.5c-0.8-0.3-1.5-0.8-2-1.4c-0.6-0.6-1-1.2-1.3-2c-0.3-0.8-0.5-1.6-0.5-2.5v0
		c0-0.9,0.2-1.7,0.5-2.5c0.3-0.8,0.8-1.4,1.3-2c0.6-0.6,1.3-1,2-1.4c0.8-0.3,1.7-0.5,2.6-0.5c0.9,0,1.8,0.2,2.6,0.5
		c0.8,0.3,1.5,0.8,2,1.4c0.6,0.6,1,1.2,1.3,2c0.3,0.8,0.5,1.6,0.5,2.5v0c0,0.9-0.2,1.7-0.5,2.5c-0.3,0.8-0.8,1.4-1.3,2
		c-0.6,0.6-1.3,1-2,1.4C57.4,181,56.5,181.2,55.6,181.2 M55.6,179.2c0.6,0,1.2-0.1,1.7-0.3c0.5-0.2,0.9-0.5,1.3-0.9
		c0.4-0.4,0.6-0.9,0.8-1.4c0.2-0.5,0.3-1.1,0.3-1.7v0c0-0.6-0.1-1.2-0.3-1.7c-0.2-0.5-0.5-1-0.9-1.4c-0.4-0.4-0.8-0.7-1.3-0.9
		c-0.5-0.2-1.1-0.4-1.7-0.4c-0.6,0-1.2,0.1-1.7,0.3c-0.5,0.2-0.9,0.5-1.3,0.9c-0.4,0.4-0.6,0.9-0.8,1.4c-0.2,0.5-0.3,1.1-0.3,1.7v0
		c0,0.6,0.1,1.2,0.3,1.7c0.2,0.5,0.5,1,0.9,1.4c0.4,0.4,0.8,0.7,1.3,0.9C54.4,179.1,55,179.2,55.6,179.2"/>
	<path class="st0" d="M70.1,181.2c-0.9,0-1.8-0.2-2.6-0.5c-0.8-0.3-1.5-0.8-2-1.4c-0.6-0.6-1-1.2-1.3-2c-0.3-0.8-0.5-1.6-0.5-2.5v0
		c0-0.9,0.2-1.7,0.5-2.5c0.3-0.8,0.8-1.4,1.3-2c0.6-0.6,1.3-1,2-1.4c0.8-0.3,1.7-0.5,2.6-0.5c0.9,0,1.8,0.2,2.6,0.5
		c0.8,0.3,1.5,0.8,2,1.4c0.6,0.6,1,1.2,1.3,2c0.3,0.8,0.5,1.6,0.5,2.5v0c0,0.9-0.2,1.7-0.5,2.5c-0.3,0.8-0.8,1.4-1.3,2
		c-0.6,0.6-1.3,1-2,1.4C71.9,181,71,181.2,70.1,181.2 M70.1,179.2c0.6,0,1.2-0.1,1.7-0.3c0.5-0.2,0.9-0.5,1.3-0.9
		c0.4-0.4,0.6-0.9,0.8-1.4c0.2-0.5,0.3-1.1,0.3-1.7v0c0-0.6-0.1-1.2-0.3-1.7c-0.2-0.5-0.5-1-0.9-1.4c-0.4-0.4-0.8-0.7-1.3-0.9
		c-0.5-0.2-1.1-0.4-1.7-0.4c-0.6,0-1.2,0.1-1.7,0.3c-0.5,0.2-0.9,0.5-1.3,0.9c-0.4,0.4-0.6,0.9-0.8,1.4c-0.2,0.5-0.3,1.1-0.3,1.7v0
		c0,0.6,0.1,1.2,0.3,1.7c0.2,0.5,0.5,1,0.9,1.4c0.4,0.4,0.8,0.7,1.3,0.9C69,179.1,69.5,179.2,70.1,179.2"/>
	<path class="st0" d="M78.7,168.7h4.6c1,0,1.8,0.2,2.6,0.5c0.8,0.3,1.5,0.7,2.1,1.3c0.6,0.5,1,1.2,1.3,1.9c0.3,0.7,0.5,1.5,0.5,2.4
		v0c0,0.9-0.2,1.7-0.5,2.4c-0.3,0.7-0.8,1.4-1.3,1.9c-0.6,0.6-1.3,1-2.1,1.3c-0.8,0.3-1.7,0.5-2.6,0.5h-4.6V168.7z M83.3,179
		c0.6,0,1.2-0.1,1.8-0.3c0.5-0.2,1-0.5,1.3-0.9c0.4-0.4,0.7-0.8,0.9-1.3c0.2-0.5,0.3-1.1,0.3-1.7v0c0-0.6-0.1-1.2-0.3-1.7
		c-0.2-0.5-0.5-1-0.9-1.3c-0.4-0.4-0.8-0.7-1.3-0.9c-0.5-0.2-1.1-0.3-1.8-0.3h-2.4v8.4H83.3z"/>
	<polygon class="st0" points="97,168.7 106.1,168.7 106.1,170.6 99.1,170.6 99.1,173.8 105.3,173.8 105.3,175.7 99.1,175.7 
		99.1,179 106.1,179 106.1,181 97,181 	"/>
	<polygon class="st0" points="107.3,168.7 109.7,168.7 113.4,178.1 117.1,168.7 119.4,168.7 114.3,181.1 112.4,181.1 	"/>
	<path class="st0" d="M127,181.2c-0.9,0-1.8-0.2-2.6-0.5c-0.8-0.3-1.5-0.8-2-1.4c-0.6-0.6-1-1.2-1.3-2c-0.3-0.8-0.5-1.6-0.5-2.5v0
		c0-0.9,0.2-1.7,0.5-2.5c0.3-0.8,0.8-1.4,1.3-2c0.6-0.6,1.3-1,2-1.4c0.8-0.3,1.7-0.5,2.6-0.5c0.9,0,1.8,0.2,2.6,0.5
		c0.8,0.3,1.5,0.8,2,1.4c0.6,0.6,1,1.2,1.3,2c0.3,0.8,0.5,1.6,0.5,2.5v0c0,0.9-0.2,1.7-0.5,2.5c-0.3,0.8-0.8,1.4-1.3,2
		c-0.6,0.6-1.3,1-2,1.4C128.8,181,127.9,181.2,127,181.2 M127,179.2c0.6,0,1.2-0.1,1.7-0.3c0.5-0.2,0.9-0.5,1.3-0.9
		c0.4-0.4,0.6-0.9,0.8-1.4c0.2-0.5,0.3-1.1,0.3-1.7v0c0-0.6-0.1-1.2-0.3-1.7c-0.2-0.5-0.5-1-0.9-1.4c-0.4-0.4-0.8-0.7-1.3-0.9
		c-0.5-0.2-1.1-0.4-1.7-0.4c-0.6,0-1.2,0.1-1.7,0.3c-0.5,0.2-0.9,0.5-1.3,0.9c-0.4,0.4-0.6,0.9-0.8,1.4c-0.2,0.5-0.3,1.1-0.3,1.7v0
		c0,0.6,0.1,1.2,0.3,1.7c0.2,0.5,0.5,1,0.9,1.4c0.4,0.4,0.8,0.7,1.3,0.9C125.8,179.1,126.4,179.2,127,179.2"/>
	<polygon class="st0" points="135.6,168.7 137.8,168.7 137.8,179 144.2,179 144.2,181 135.6,181 	"/>
	<path class="st0" d="M151.2,181.2c-0.8,0-1.5-0.1-2.2-0.3c-0.6-0.2-1.2-0.6-1.7-1c-0.5-0.5-0.8-1-1.1-1.7c-0.2-0.7-0.4-1.5-0.4-2.3
		v-7.1h2.1v7c0,1.1,0.3,2,0.8,2.6c0.6,0.6,1.3,0.9,2.3,0.9c1,0,1.7-0.3,2.3-0.9c0.6-0.6,0.8-1.4,0.8-2.6v-7.1h2.1v7
		c0,0.9-0.1,1.7-0.4,2.4c-0.3,0.7-0.6,1.3-1.1,1.7c-0.5,0.5-1,0.8-1.7,1C152.7,181.1,152,181.2,151.2,181.2"/>
	<polygon class="st0" points="162,170.7 158.1,170.7 158.1,168.7 168.1,168.7 168.1,170.7 164.2,170.7 164.2,181 162,181 	"/>
	<rect x="170.1" y="168.7" class="st0" width="2.1" height="12.3"/>
	<path class="st0" d="M181,181.2c-0.9,0-1.8-0.2-2.6-0.5c-0.8-0.3-1.5-0.8-2-1.4c-0.6-0.6-1-1.2-1.3-2c-0.3-0.8-0.5-1.6-0.5-2.5v0
		c0-0.9,0.2-1.7,0.5-2.5c0.3-0.8,0.8-1.4,1.3-2c0.6-0.6,1.3-1,2-1.4c0.8-0.3,1.7-0.5,2.6-0.5c0.9,0,1.8,0.2,2.6,0.5
		c0.8,0.3,1.5,0.8,2,1.4c0.6,0.6,1,1.2,1.3,2c0.3,0.8,0.5,1.6,0.5,2.5v0c0,0.9-0.2,1.7-0.5,2.5c-0.3,0.8-0.8,1.4-1.3,2
		c-0.6,0.6-1.3,1-2,1.4C182.8,181,182,181.2,181,181.2 M181.1,179.2c0.6,0,1.2-0.1,1.7-0.3c0.5-0.2,0.9-0.5,1.3-0.9
		c0.4-0.4,0.6-0.9,0.8-1.4c0.2-0.5,0.3-1.1,0.3-1.7v0c0-0.6-0.1-1.2-0.3-1.7c-0.2-0.5-0.5-1-0.9-1.4c-0.4-0.4-0.8-0.7-1.3-0.9
		c-0.5-0.2-1.1-0.4-1.7-0.4c-0.6,0-1.2,0.1-1.7,0.3c-0.5,0.2-0.9,0.5-1.3,0.9c-0.4,0.4-0.6,0.9-0.8,1.4c-0.2,0.5-0.3,1.1-0.3,1.7v0
		c0,0.6,0.1,1.2,0.3,1.7c0.2,0.5,0.5,1,0.9,1.4c0.4,0.4,0.8,0.7,1.3,0.9C179.9,179.1,180.5,179.2,181.1,179.2"/>
	<polygon class="st0" points="189.7,168.7 191.7,168.7 198.3,177.2 198.3,168.7 200.4,168.7 200.4,181 198.6,181 191.8,172.2 
		191.8,181 189.7,181 	"/>
</g>
</svg>
