<?xml version="1.0" encoding="UTF-8"?> 
    <svg xmlns="http://www.w3.org/2000/svg" xmlns:xlink="http://www.w3.org/1999/xlink" width="60" height="72" viewBox="0 0 60 72"> 
        <defs> 
            <path id="a" d="M0 71.515h59.677V0H0z"></path> 
        </defs> 
        <g fill="none" fill-rule="evenodd"> 
            <path fill="#787871" d="M9.123 66.673v-1.15a12.78 12.78 0 0 0-3.625-.528c-2.305 0-3.625 1.007-3.625 2.493v.049c0 1.556 1.44 2.469 3.12 2.469 2.281 0 4.13-1.367 4.13-3.333zm-3.505-8.03c1.752 0 3.12.479 4.01 1.366.863.864 1.295 2.062 1.295 3.643v7.575H9.1v-1.846c-.864 1.103-2.28 2.111-4.466 2.111-2.328 0-4.633-1.32-4.633-3.86v-.049c0-2.66 2.16-4.05 5.306-4.05 1.583 0 2.688.215 3.793.527v-.385c0-2.203-1.344-3.354-3.674-3.354-1.464 0-2.617.36-3.769.886l-.551-1.51c1.367-.623 2.688-1.054 4.513-1.054z"></path> 
            <path fill="#787871" d="M13.563 71.227h1.849V54.186h-1.849zM18.436 71.218h1.848V58.825h-1.848zM18.316 56.267h2.112v-2.038h-2.112zM29.31 69.86c-2.592 0-4.56-2.131-4.56-4.817v-.048c0-2.66 1.92-4.794 4.44-4.794 1.68 0 2.785.839 3.77 1.87l1.223-1.294c-1.152-1.223-2.615-2.207-4.97-2.207-3.623 0-6.36 2.974-6.36 6.473v.047c0 3.476 2.737 6.425 6.36 6.425 2.33 0 3.818-1.006 5.067-2.398l-1.176-1.102c-.985 1.055-2.21 1.846-3.793 1.846M44.554 66.673c0 1.966-1.849 3.333-4.13 3.333-1.681 0-3.12-.913-3.12-2.47v-.048c0-1.486 1.32-2.493 3.624-2.493 1.512 0 2.713.263 3.626.527v1.151zm-3.505-8.03c-1.825 0-3.145.431-4.514 1.054l.552 1.51c1.153-.527 2.304-.886 3.77-.886 2.328 0 3.672 1.15 3.672 3.354v.385a13.027 13.027 0 0 0-3.792-.527c-3.146 0-5.306 1.39-5.306 4.05v.049c0 2.54 2.304 3.86 4.633 3.86 2.185 0 3.602-1.008 4.465-2.111v1.846h1.825v-7.575c0-1.58-.432-2.78-1.296-3.643-.889-.887-2.258-1.366-4.01-1.366zM54.924 58.57c-2.137 0-3.433 1.08-4.25 2.421v-2.156h-1.848v12.392h1.848v-7.095c0-2.324 1.586-3.884 3.721-3.884 2.185 0 3.435 1.44 3.435 3.74v7.24h1.847v-7.695c0-2.948-1.753-4.963-4.753-4.963M23.658 11.312c-.408-.206-.818-.41-1.233-.606a54.078 54.078 0 0 1 6.256-4.796c.381-.25.764-.498 1.15-.739.392.244.778.494 1.163.747a54.072 54.072 0 0 1 6.245 4.79c-.183.086-.37.17-.552.258-.222.108-.44.222-.66.333a49.355 49.355 0 0 0-6.205 3.717 49.358 49.358 0 0 0-6.164-3.704zm20.604 36.556H58.717v-.003h.944a57.825 57.825 0 0 0-5.752-22.428 34.046 34.046 0 0 0-4.568.895 53.305 53.305 0 0 1 3.513 8.603 53.34 53.34 0 0 1 1.878 8.455h-5.456a48.943 48.943 0 0 0-6.316-14.648 34.613 34.613 0 0 0-3.878 2.249 44.563 44.563 0 0 1 3.785 7.222 44.427 44.427 0 0 1 1.778 5.177h-6.356a40.229 40.229 0 0 0-5.418-8.856 36.084 36.084 0 0 1 5.532-4.551l.004-.003a35.942 35.942 0 0 1 10.364-4.734l.05-.014a35.877 35.877 0 0 1 4.516-.931h.006l-.059-.106-.016-.028h.002a58.111 58.111 0 0 0-2.204-3.882l-.08-.14h-.006a58.46 58.46 0 0 0-4.852-6.69 43.203 43.203 0 0 0-4.543 1.593 54.059 54.059 0 0 1 4.804 6.229 40.2 40.2 0 0 0-6.814 2.81 49.52 49.52 0 0 0-5.059-5.312 43.428 43.428 0 0 0-3.696 2.696 44.915 44.915 0 0 1 4.867 4.94l-.006.003a40.574 40.574 0 0 0-5.814 4.793 40.603 40.603 0 0 0-5.882-4.84 45.146 45.146 0 0 1 4.793-4.853 48.786 48.786 0 0 1 1.047-.88 45.21 45.21 0 0 1 10.866-6.567l.107-.044a46.305 46.305 0 0 1 4.439-1.6l-.04-.046-.031-.036a58.63 58.63 0 0 0-9.767-8.828l-.094-.065c-.337-.241-.677-.479-1.02-.713l-.117-.08A58.47 58.47 0 0 0 29.873.002l-.046.03L29.775 0a58.116 58.116 0 0 0-4.231 2.617c-.073.05-.148.098-.22.148l-.535.372a58.651 58.651 0 0 0-10.341 9.26 46.974 46.974 0 0 1 4.474 1.637c.019.007.038.017.058.025a44.779 44.779 0 0 1 7.134 3.84l-.009.007a49.611 49.611 0 0 0-6.024 6.142 40.084 40.084 0 0 0-6.795-2.79 53.955 53.955 0 0 1 4.733-6.145c-.019-.007-.037-.016-.056-.024-.264-.109-.531-.212-.798-.316a49.278 49.278 0 0 0-3.69-1.244 58.312 58.312 0 0 0-7.122 10.715 36.478 36.478 0 0 1 2.297.402 35.993 35.993 0 0 1 8.73 3.006 35.724 35.724 0 0 1 3.877 2.237l.018.012a36.018 36.018 0 0 1 5.607 4.61 36.218 36.218 0 0 1 2.926 3.342l.074.095a35.645 35.645 0 0 1 5.378 9.917h-.005.145v.003h8.862z" mask="url(#b)"></path> 
            <path fill="#787871" d="M1.164 47.868h22.652v-.003h.661a35.68 35.68 0 0 1 4.57-8.793l-.072-.097a34.867 34.867 0 0 0-2.929-3.393 40.308 40.308 0 0 0-4.6 7.808h-6.482a44.45 44.45 0 0 1 3.818-9.44c.545-1 1.126-1.978 1.743-2.93a34.414 34.414 0 0 0-3.892-2.237 48.915 48.915 0 0 0-6.307 14.607H4.929a53.32 53.32 0 0 1 3.62-13.259 53.363 53.363 0 0 1 1.733-3.725 34.122 34.122 0 0 0-4.52-.88l.003-.004-.05-.007A57.793 57.793 0 0 0 0 47.865h1.164v.003z" mask="url(#b)"></path> 
        </g> 
    </svg> 