<?xml version="1.0" encoding="utf-8"?>
<!-- Generator: Adobe Illustrator 19.0.0, SVG Export Plug-In . SVG Version: 6.00 Build 0)  -->
<svg version="1.1" id="Capa_1" xmlns="http://www.w3.org/2000/svg" xmlns:xlink="http://www.w3.org/1999/xlink" x="0px" y="0px"
	 viewBox="0 0 685 283.5" style="enable-background:new 0 0 685 283.5;" xml:space="preserve">
<style type="text/css">
	.st0{fill:#231F20;}
	.st1{fill:#F7323F;}
</style>
<path class="st0" d="M119.3,220.9c9.7,0,14.2-6,14.2-12.6c0-19.8-36.5-18-36.5-41.6c0-11.1,9.7-19,22.9-19c9.3,0,15.2,2.1,19.5,4.8
	v15.8h-1.2c-3.7-12.2-11.1-17.8-18.9-17.8c-8.1,0-12.9,5.3-12.9,11.8c0,19.8,36.4,18.4,36.4,41.4c0,11.4-9,20.1-23.3,20.1
	c-10.3,0-17.7-3.1-22.5-5.5v-16.4h1.2C102.7,215,111.4,220.8,119.3,220.9"/>
<path class="st0" d="M163.1,210.2c0,7.2,1.5,9.9,4.6,11.3v1h-18.9v-1c3.1-1.4,4.6-4.2,4.6-11.3v-30.2c0-5.8-2.7-7.7-4.9-8.7v-1.1
	l14.6-4.8V210.2z"/>
<path class="st0" d="M157.8,144c3.8,0,7.1,3.2,7.1,6.9s-3.3,6.9-7.1,6.9c-3.8,0-7.1-3.2-7.1-6.9S154,144,157.8,144"/>
<path class="st0" d="M221.7,210.9c-5.1,7.3-12.9,12.9-23.3,12.9c-16.1,0-26.6-11.1-26.6-28.6c0-17.7,10.8-29.7,26.3-29.7
	c16.3,0,22.7,10.2,22.7,23.4v2.8h-38.6v0.9c0,17.3,9.2,24.9,20.1,24.9c7,0,13.2-2.8,18.4-7.5L221.7,210.9z M211,187.4
	c-0.2-9.6-3.3-19-12.9-19c-9.8,0-14.8,9.2-15.7,20.8L211,187.4z"/>
<path class="st0" d="M260.7,214.4c12,0,17.4,3.3,17.4,11.8c0,11.2-13.8,23.9-33.4,23.9c-13.4,0-20.8-5.8-20.8-14
	c0-6.3,5.2-11.8,12.1-14c-3.6-1.5-5.6-4.3-5.6-7.9c0-5.7,5.3-9.8,8.5-11.6c-7.5-2.6-12.5-8.8-12.5-17.5c0-11.3,9.4-19.7,23.3-19.7
	c5.1,0,9.6,1.2,13,3.4c2-5.4,5.8-8.9,10.6-8.9c3.8,0,6.1,2.4,6.1,5.3c0,2.9-1.8,5.1-5.1,5.1c-2.6,0-4.5-1.5-5.3-3.7
	c-1.8,0.3-3.4,1.5-4.6,3.4c4.2,3.3,6.5,8.1,6.5,14.2c0,11.7-9.8,19.8-23.4,19.8c-2.1,0-4.3-0.2-6.2-0.7c-1.9,2-3.3,4.1-3.3,6.2
	c0,3.3,2.4,5,7.8,5H260.7z M244.9,223.6c-2.4,0-4.5-0.2-6.3-0.7c-3.8,2.4-6.4,6.2-6.4,10.8c0,7.8,6.6,12.2,16.2,12.2
	c12.1,0,21.8-5.8,21.8-15.5c0-5-3.3-6.8-10-6.8H244.9z M236.4,184.2c0,10.5,5.4,17.1,12.4,17.1c7,0,12.4-6.5,12.4-16.2
	c0-9.4-5.2-16.9-12.4-16.9C241.6,168.1,236.4,174.8,236.4,184.2"/>
<path class="st0" d="M328.8,210.9c-5.1,7.3-12.9,12.9-23.3,12.9c-16.1,0-26.6-11.1-26.6-28.6c0-17.7,10.8-29.7,26.3-29.7
	c16.3,0,22.7,10.2,22.7,23.4v2.8h-38.6v0.9c0,17.3,9.2,24.9,20.1,24.9c7,0,13.2-2.8,18.4-7.5L328.8,210.9z M318.2,187.4
	c-0.2-9.6-3.3-19-12.9-19c-9.8,0-14.8,9.2-15.7,20.8L318.2,187.4z"/>
<path class="st0" d="M365.6,165.5c4.5-0.1,7.2,3.1,7.2,6.6c0,4-2.8,6.8-6.7,6.8c-3.5,0-6.3-2.9-6.5-6.8c-2.8,0.3-7.6,4.2-11.2,8.6
	v29.6c0,7.1,1.8,9.8,6,11.3v1H334v-1c3.1-1.4,4.6-4.2,4.6-11.3v-30.4c0-5.8-2.7-7.7-4.9-8.8v-1l14.6-4.8v12.3
	C353.8,170.3,360.3,165.3,365.6,165.5"/>
<path class="st1" d="M297.6,128l-0.2-1.5c-0.2-1.7-0.5-1.9-2.2-2.5c-3.8-1.4-8.8-2-13.9-4.3l-0.2-3.6c-1.2-8.4-9.1-16.5-17-22.6
	c-8.5-6.5-14.2-8.5-22.8-11.4L206.1,72l-23.2-34l-0.1,0.1c-0.9,0.7-1.2,1.9-1.1,2.3l0.7,7.4l-6.5,4.4c-1.2,0.9-2.2,3.5-2.2,4.8
	l-11.8,7.1c0,0-2.3,1.1-0.4,3.4c0.9,1,1.2,1.5,2.1,2.3c1.2,1.1,2.2,1.3,3.3,1.3c0.5,0,3.5-0.3,4.2-1.1c0,0,0.5,0.4-0.5,1l0,0
	c0,0,0,0,0,0c-0.1,0.1-0.2,0.1-0.4,0.2l0,0c-1,0.5-2.8,1.1-3,1.9c0,0-0.2,1.1-0.1,2.9c0,1.4,0.2,2.1,0.2,2.1c0.1,0.6,0.5,1.4,1,1.3
	c0,0,0.1,0,0.1-0.1c-0.1-1.4-0.2-3.4,0.4-4.6c0.4,0.7,0.9,1.3,1.8,1.2c0.4-0.1,2.3-0.3,2.4-0.4l7.6-1.8l0.9,1.2
	c3.7,12.4,5.9,22.8,5.9,22.8c1.3,3.5,6.1,10.8,10.3,14.6l2.4,25.8l0.1,0.6c-0.9,0.3-2,0.6-3.1,1.1c-0.5,0.2-1.4,0.8-1.7,1.4
	c-0.7,1.4-1,2.1-1.4,3.1h7.4h0.9h0.7h3.1h0.2h5.7h1.2l3.7-25.9c-5.2,0-7.3-0.3-7.3-0.3l-1.2,20.5c-0.6,0.2-1.3,0.4-1.8,0.6l1.1-23.1
	v0c0.9,0.3,12.4,0.9,20,0.4c11.9-0.8,23.8-4,23.8-4c4,8.6,13.8,15,19.5,17c0,0,0,7.5,1.6,11.1c1.8,4,6.5,3.9,9.7,3.9
	c0,0-1.2-4.2-1.3-13.4c0,0,3.8,0.6,9.4,0.4l0.4,7.5c-0.9,0.3-1.9,0.6-2.8,1c-0.5,0.2-1.4,0.8-1.7,1.4c-0.7,1.4-1,2.1-1.4,3.1h8.1
	h0.2h4.2l0.5,0h0.7L297.6,128z"/>
<path class="st1" d="M264.5,128.7l-0.5-0.3c-1.7-1-3.3-2.1-4.9-3.5c-2-1.6-3.8-3.4-5.4-5.4c-1.3-1.6-2.5-3.1-3.4-4.7
	c-2.2,0.5-10.5,2.6-10.5,2.6c4.3,7.2,11.2,12.2,14.6,13.7c5.6,2.6,1.9,0.8,4.7,1.8l-0.7,5.4l0-0.1c-1,0.3-2.4,0.8-3.8,1.3
	c-0.5,0.2-1.4,0.8-1.7,1.4c-0.7,1.4-1,2.1-1.4,3.1h6.8h1.5h5.7l0.4-11.9C265.9,130.2,266.1,129.7,264.5,128.7"/>
<g>
	<path class="st0" d="M421.3,182.5h-5v8.1h-4.4v-25.3h10c5.9,0,9.6,3.3,9.6,8.5C431.4,179.5,426.9,182.5,421.3,182.5z M421.4,169.3
		h-5.2v9.1h5.2c3.4,0,5.5-1.8,5.5-4.6C426.9,170.9,424.8,169.3,421.4,169.3z"/>
	<path class="st0" d="M453.9,169.3h-14.3v6.6h12.7v4h-12.7v6.8h14.5v4h-18.9v-25.3h18.8V169.3z"/>
	<path class="st0" d="M469.3,190.6h-4.5v-21.2h-8v-4.1h20.5v4.1h-8V190.6z"/>
	<path class="st0" d="M510.1,169.3h-14.4v6.9h12.8v4h-12.8v10.3h-4.4v-25.3h18.8V169.3z"/>
	<path class="st0" d="M526,191c-7.8,0-13.2-5.9-13.2-13.1s5.5-13.1,13.3-13.1c7.8,0,13.2,5.9,13.2,13.1S533.8,191,526,191z
		 M526,168.9c-5,0-8.5,4-8.5,9s3.6,9,8.6,9c5,0,8.5-4,8.5-9S531,168.9,526,168.9z"/>
	<path class="st0" d="M555.9,191c-7.8,0-13.2-5.9-13.2-13.1s5.5-13.1,13.3-13.1c7.8,0,13.2,5.9,13.2,13.1S563.7,191,555.9,191z
		 M555.9,168.9c-5,0-8.5,4-8.5,9s3.6,9,8.6,9c5,0,8.5-4,8.5-9S561,168.9,555.9,168.9z"/>
	<path class="st0" d="M583.2,190.6h-9.4v-25.3h9.4c8,0,13.5,5.5,13.5,12.6S591.2,190.6,583.2,190.6z M583.2,169.3h-5v17.2h5
		c5.3,0,8.8-3.6,8.8-8.6S588.6,169.3,583.2,169.3z"/>
</g>
<g>
	<path class="st0" d="M430.6,199.8h-14.3v6.6H429v4h-12.7v6.8h14.5v4h-18.9v-25.3h18.8V199.8z"/>
	<path class="st0" d="M453.2,195.8h4.8l-10.5,25.5h-3.9l-10.5-25.5h4.9l7.6,19.5L453.2,195.8z"/>
	<path class="st0" d="M472.1,221.6c-7.8,0-13.2-5.9-13.2-13.1s5.5-13.1,13.3-13.1c7.8,0,13.2,5.9,13.2,13.1S479.9,221.6,472.1,221.6
		z M472.1,199.5c-5,0-8.5,4-8.5,9s3.6,9,8.6,9c5,0,8.5-4,8.5-9S477.1,199.5,472.1,199.5z"/>
	<path class="st0" d="M490,195.8h4.4v21.3h13.3v4H490V195.8z"/>
	<path class="st0" d="M532.1,210.2c0,7.6-4.3,11.4-10.9,11.4c-6.6,0-10.8-3.8-10.8-11.1v-14.6h4.4v14.4c0,4.7,2.4,7.2,6.4,7.2
		c3.9,0,6.4-2.4,6.4-7.1v-14.6h4.4V210.2z"/>
	<path class="st0" d="M548.1,221.1h-4.5v-21.2h-8v-4.1h20.5v4.1h-8V221.1z"/>
	<path class="st0" d="M564.7,195.8v25.3h-4.4v-25.3H564.7z"/>
	<path class="st0" d="M582.7,221.6c-7.8,0-13.2-5.9-13.2-13.1s5.5-13.1,13.3-13.1c7.8,0,13.2,5.9,13.2,13.1S590.5,221.6,582.7,221.6
		z M582.7,199.5c-5,0-8.5,4-8.5,9s3.6,9,8.6,9c5,0,8.5-4,8.5-9S587.8,199.5,582.7,199.5z"/>
	<path class="st0" d="M618.3,195.8h4.4v25.3h-3.7l-14-18v18h-4.4v-25.3h4.1l13.6,17.5V195.8z"/>
</g>
</svg>
